<?xml version="1.0" standalone="no"?>
<!DOCTYPE svg PUBLIC "-//W3C//DTD SVG 20010904//EN"
 "http://www.w3.org/TR/2001/REC-SVG-20010904/DTD/svg10.dtd">
<svg version="1.0" xmlns="http://www.w3.org/2000/svg"
 width="594.000000pt" height="594.000000pt" viewBox="0 0 594.000000 594.000000"
 preserveAspectRatio="xMidYMid meet">
<metadata>
Created by potrace 1.11, written by Peter Selinger 2001-2013
</metadata>
<g transform="translate(0.000000,594.000000) scale(0.100000,-0.100000)"
fill="#000000" stroke="none">
<path d="M1935 5480 c-312 -5 -342 -7 -368 -24 -61 -42 -57 141 -57 -2406 0
-2158 1 -2335 17 -2367 9 -20 30 -44 47 -54 30 -18 75 -19 1440 -17 l1408 3
34 39 34 39 0 2347 0 2347 -23 34 c-46 68 28 64 -1137 64 -580 1 -1208 -2
-1395 -5z m1605 -334 c0 -49 -4 -65 -16 -70 -20 -8 -1028 -8 -1048 0 -12 5
-16 21 -16 70 l0 64 540 0 540 0 0 -64z m670 -2226 c3 -1060 1 -1880 -4 -1887
-7 -10 -260 -13 -1207 -13 l-1199 0 0 878 c0 483 -3 1332 -7 1885 l-6 1007
404 3 c222 1 766 2 1209 2 l805 0 5 -1875z"/>
<path d="M1972 3438 c2 -18 11 -24 35 -26 63 -6 63 -6 63 -423 0 -356 -1 -377
-19 -393 -10 -9 -32 -21 -47 -25 -19 -5 -30 -15 -32 -30 l-4 -22 229 4 c125 2
249 9 274 14 65 13 171 76 217 128 77 88 112 194 112 340 0 246 -104 393 -313
444 -29 6 -140 11 -283 11 l-235 0 3 -22z m404 -27 c102 -15 184 -63 218 -129
37 -73 56 -169 56 -289 0 -66 -4 -133 -9 -149 -5 -16 -15 -49 -22 -74 -28 -98
-96 -165 -191 -188 -72 -18 -183 -16 -199 5 -11 13 -14 90 -14 405 l0 390 24
19 c26 21 48 23 137 10z"/>
<path d="M2830 3443 c0 -10 13 -25 29 -35 16 -9 36 -27 45 -40 8 -12 67 -178
130 -368 170 -507 158 -475 184 -478 12 -2 24 3 26 10 8 23 52 169 90 293 67
219 101 324 104 320 2 -1 50 -142 108 -311 57 -169 109 -311 116 -315 18 -12
38 1 44 30 4 14 19 67 35 116 16 50 29 96 29 103 0 7 4 20 9 30 5 9 19 51 31
92 12 41 26 84 30 95 4 11 18 54 30 95 79 261 80 262 132 312 28 25 47 51 43
57 -4 7 -54 11 -136 11 -122 0 -129 -1 -129 -20 0 -13 9 -22 28 -26 61 -13 72
-24 72 -73 0 -40 -27 -149 -50 -206 -5 -11 -14 -38 -20 -60 -6 -22 -15 -49
-20 -60 -4 -11 -18 -54 -29 -95 -45 -155 -39 -158 -110 61 -35 107 -71 217
-81 244 -32 93 -40 121 -40 149 0 27 3 30 53 40 18 4 27 13 27 26 0 19 -7 20
-155 20 -151 0 -155 -1 -155 -21 0 -12 8 -23 18 -26 22 -5 45 -41 66 -103 18
-51 20 -89 7 -122 -5 -13 -17 -50 -26 -83 -10 -33 -25 -85 -35 -115 -10 -30
-28 -88 -40 -127 -13 -40 -26 -73 -29 -73 -3 0 -23 55 -44 123 -21 67 -44 138
-51 157 -22 57 -66 191 -82 249 -17 64 -12 87 21 95 16 4 25 13 25 26 0 19 -7
20 -150 20 -136 0 -150 -2 -150 -17z"/>
</g>
</svg>
